<svg width="116" height="116" viewBox="0 0 116 116" fill="none" xmlns="http://www.w3.org/2000/svg">
<rect x="0.724349" y="58" width="81" height="81" transform="rotate(-45 0.724349 58)" stroke="black"/>
<path d="M60 7C60 8.10457 59.1046 9 58 9C56.8954 9 56 8.10457 56 7C56 5.89543 56.8954 5 58 5C59.1046 5 60 5.89543 60 7Z" fill="black"/>
<path d="M9 58C9 59.1046 8.10457 60 7 60C5.89543 60 5 59.1046 5 58C5 56.8954 5.89543 56 7 56C8.10457 56 9 56.8954 9 58Z" fill="black"/>
<path d="M34 65C34 66.6569 32.6569 68 31 68C29.3431 68 28 66.6569 28 65C28 63.3431 29.3431 62 31 62C32.6569 62 34 63.3431 34 65Z" fill="black"/>
<path d="M34 76C34 77.6569 32.6569 79 31 79C29.3431 79 28 77.6569 28 76C28 74.3431 29.3431 73 31 73C32.6569 73 34 74.3431 34 76Z" fill="black"/>
<path d="M34 87C34 88.6569 32.6569 90 31 90C29.3431 90 28 88.6569 28 87C28 85.3431 29.3431 84 31 84C32.6569 84 34 85.3431 34 87Z" fill="black"/>
<path d="M52 65C52 66.6569 50.6569 68 49 68C47.3431 68 46 66.6569 46 65C46 63.3431 47.3431 62 49 62C50.6569 62 52 63.3431 52 65Z" fill="black"/>
<path d="M52 76C52 77.6569 50.6569 79 49 79C47.3431 79 46 77.6569 46 76C46 74.3431 47.3431 73 49 73C50.6569 73 52 74.3431 52 76Z" fill="black"/>
<path d="M52 87C52 88.6569 50.6569 90 49 90C47.3431 90 46 88.6569 46 87C46 85.3431 47.3431 84 49 84C50.6569 84 52 85.3431 52 87Z" fill="black"/>
<path d="M69 29C69 30.6569 67.6569 32 66 32C64.3431 32 63 30.6569 63 29C63 27.3431 64.3431 26 66 26C67.6569 26 69 27.3431 69 29Z" fill="black"/>
<path d="M79 40C79 41.6569 77.6569 43 76 43C74.3431 43 73 41.6569 73 40C73 38.3431 74.3431 37 76 37C77.6569 37 79 38.3431 79 40Z" fill="black"/>
<path d="M90 51C90 52.6569 88.6569 54 87 54C85.3431 54 84 52.6569 84 51C84 49.3431 85.3431 48 87 48C88.6569 48 90 49.3431 90 51Z" fill="black"/>
<path d="M60 109C60 110.105 59.1046 111 58 111C56.8954 111 56 110.105 56 109C56 107.895 56.8954 107 58 107C59.1046 107 60 107.895 60 109Z" fill="black"/>
<path d="M111 58C111 59.1046 110.105 60 109 60C107.895 60 107 59.1046 107 58C107 56.8954 107.895 56 109 56C110.105 56 111 56.8954 111 58Z" fill="black"/>
<rect x="23" y="59" width="34" height="34" rx="5" stroke="black" stroke-width="2"/>
<rect x="59" y="23" width="34" height="34" rx="5" stroke="black" stroke-width="2"/>
<path d="M47 30C47 29.4477 46.5523 29 46 29C45.4477 29 45 29.4477 45 30H47ZM45 42C45 42.5523 45.4477 43 46 43C46.5523 43 47 42.5523 47 42H45ZM45 30V36H47V30H45ZM45 36V42H47V36H45Z" fill="black"/>
<path d="M30 45C29.4477 45 29 45.4477 29 46C29 46.5523 29.4477 47 30 47V45ZM42 47C42.5523 47 43 46.5523 43 46C43 45.4477 42.5523 45 42 45V47ZM30 47H36V45H30V47ZM36 47H42V45H36V47Z" fill="black"/>
<path d="M34.7071 33.2929C34.3166 32.9024 33.6834 32.9024 33.2929 33.2929C32.9024 33.6834 32.9024 34.3166 33.2929 34.7071L34.7071 33.2929ZM41.7782 43.1924C42.1687 43.5829 42.8019 43.5829 43.1924 43.1924C43.5829 42.8019 43.5829 42.1687 43.1924 41.7782L41.7782 43.1924ZM33.2929 34.7071L37.5355 38.9497L38.9497 37.5355L34.7071 33.2929L33.2929 34.7071ZM37.5355 38.9497L41.7782 43.1924L43.1924 41.7782L38.9497 37.5355L37.5355 38.9497Z" fill="black"/>
<path d="M69 86C69 86.5523 69.4477 87 70 87C70.5523 87 71 86.5523 71 86H69ZM71 74C71 73.4477 70.5523 73 70 73C69.4477 73 69 73.4477 69 74H71ZM71 86V80H69V86H71ZM71 80V74H69V80H71Z" fill="black"/>
<path d="M86.0004 71C86.5527 71 87.0004 70.5523 87.0004 70C87.0004 69.4477 86.5527 69 86.0004 69V71ZM74.0004 69C73.4482 69 73.0004 69.4477 73.0004 70C73.0004 70.5523 73.4482 71 74.0004 71V69ZM86.0004 69H80.0004V71H86.0004V69ZM80.0004 69H74.0004V71H80.0004V69Z" fill="black"/>
<path d="M81.2929 82.7071C81.6834 83.0976 82.3166 83.0976 82.7071 82.7071C83.0976 82.3166 83.0976 81.6834 82.7071 81.2929L81.2929 82.7071ZM74.2218 72.8076C73.8313 72.4171 73.1981 72.4171 72.8076 72.8076C72.4171 73.1981 72.4171 73.8313 72.8076 74.2218L74.2218 72.8076ZM82.7071 81.2929L78.4645 77.0503L77.0503 78.4645L81.2929 82.7071L82.7071 81.2929ZM78.4645 77.0503L74.2218 72.8076L72.8076 74.2218L77.0503 78.4645L78.4645 77.0503Z" fill="black"/>
</svg>
